<mxfile host="app.diagrams.net" modified="2022-07-07T19:35:38.969Z" agent="5.0 (X11; Linux x86_64) AppleWebKit/537.36 (KHTML, like Gecko) Chrome/102.0.5005.61 Safari/537.36" etag="PdNwXuN5pIowCCDOPom5" version="20.0.4" type="github">
  <diagram id="vk5hPvtxxCPH-m4OgDPf" name="Page-1">
    <mxGraphModel dx="1422" dy="763" grid="1" gridSize="10" guides="1" tooltips="1" connect="1" arrows="1" fold="1" page="1" pageScale="1" pageWidth="827" pageHeight="1169" math="0" shadow="0">
      <root>
        <mxCell id="0" />
        <mxCell id="1" parent="0" />
      </root>
    </mxGraphModel>
  </diagram>
</mxfile>
